<svg width="375" height="305" viewBox="0 0 375 305" fill="none" xmlns="http://www.w3.org/2000/svg">
<g clip-path="url(#clip0_91_3336)">
<g clip-path="url(#clip1_91_3336)">
<g clip-path="url(#clip2_91_3336)">
<g clip-path="url(#clip3_91_3336)">
<g filter="url(#filter0_f_91_3336)">
<path d="M1412.81 -829.295C1412.81 -499.539 1281.82 -183.29 1048.65 49.8799C815.479 283.057 499.23 414.047 169.47 414.047C-160.281 414.047 -476.532 283.057 -709.704 49.8799C-942.876 -183.29 -1073.87 -499.539 -1073.87 -829.295H1412.81Z" fill="url(#paint0_radial_91_3336)"/>
</g>
</g>
</g>
</g>
<path d="M322.595 56.4107C324.797 54.2079 327.708 53.1064 331.327 53.1064C334.946 53.1064 337.857 54.2865 340.06 56.6467C342.42 58.8496 343.6 62.3899 343.6 67.2676C343.6 71.988 341.555 77.4165 337.464 83.553C333.373 89.6895 329.046 93.7018 324.483 95.59C323.853 95.9047 322.909 95.59 321.651 94.6459C320.549 93.5445 319.998 92.6004 319.998 91.8136C324.561 88.8241 327.787 84.025 329.675 77.4164C326.528 77.1018 324.011 75.843 322.123 73.6401C320.234 71.2799 319.29 68.369 319.29 64.9074C319.29 61.4458 320.392 58.6136 322.595 56.4107ZM295.216 56.4107C297.419 54.2079 300.33 53.1064 303.949 53.1064C307.568 53.1064 310.479 54.2865 312.682 56.6467C314.885 58.8496 315.986 62.3899 315.986 67.2676C315.986 71.988 313.941 77.4165 309.85 83.553C305.916 89.6895 301.668 93.7018 297.105 95.59C296.475 95.9047 295.531 95.59 294.272 94.6459C293.171 93.5445 292.62 92.6004 292.62 91.8136C297.183 88.8241 300.409 84.025 302.297 77.4164C299.15 77.1018 296.632 75.843 294.744 73.6401C292.856 71.2799 291.912 68.369 291.912 64.9074C291.912 61.4458 293.014 58.6136 295.216 56.4107Z" fill="white"/>
<path d="M72.3034 71.2784C75.4503 71.5931 77.9679 72.9305 79.856 75.2907C81.7442 77.6509 82.6883 80.5618 82.6883 84.0235C82.6883 87.3277 81.5868 90.0813 79.384 92.2841C77.1811 94.487 74.1916 95.5884 70.4153 95.5884C66.7963 95.5884 63.8854 94.487 61.6825 92.2841C59.4797 89.9239 58.3783 86.3836 58.3783 81.6633C58.3783 76.7855 60.4238 71.3571 64.5148 65.3779C68.6058 59.2414 72.8541 55.1504 77.2598 53.1049C77.8892 52.7902 78.8333 53.1836 80.092 54.285C81.3508 55.3864 81.9802 56.3305 81.9802 57.1172C77.4172 60.2642 74.1916 64.9845 72.3034 71.2784ZM44.9251 71.2784C47.9147 71.5931 50.3536 72.9305 52.2418 75.2907C54.1299 77.6509 55.074 80.5618 55.074 84.0235C55.074 87.3277 53.9726 90.0813 51.7697 92.2841C49.7242 94.487 46.8133 95.5884 43.037 95.5884C39.418 95.5884 36.5071 94.487 34.3043 92.2841C32.1014 89.9239 31 86.3836 31 81.6633C31 76.7855 32.9668 71.3571 36.9005 65.3779C40.9915 59.2414 45.3185 55.1504 49.8816 53.1049C50.5109 52.7902 51.455 53.1836 52.7138 54.285C53.9726 55.3864 54.6019 56.3305 54.6019 57.1172C50.0389 60.2642 46.8133 64.9845 44.9251 71.2784Z" fill="white"/>
<path d="M158.08 86.2381C150.688 86.2381 144.605 86.6283 139.831 87.4087C135.211 88.1892 131.361 89.828 128.281 92.3254C125.354 94.8228 122.967 98.3347 121.119 102.861C119.425 107.231 117.808 113.085 116.268 120.421H109.8L111.417 75H260.183L261.8 120.421H255.332C253.792 113.085 252.098 107.231 250.25 102.861C248.556 98.3347 246.246 94.8228 243.32 92.3254C240.394 89.828 236.544 88.1892 231.77 87.4087C226.996 86.6283 220.836 86.2381 213.29 86.2381H199.198V223.202C199.198 228.041 199.506 231.943 200.122 234.909C200.738 237.874 201.894 240.216 203.588 241.933C205.436 243.649 207.977 244.898 211.211 245.679C214.599 246.303 218.988 246.771 224.378 247.083V252H147.685V247.083C153.075 246.771 157.387 246.303 160.621 245.679C163.855 244.898 166.319 243.571 168.013 241.698C169.861 239.669 171.016 236.938 171.478 233.504C172.094 230.07 172.402 225.544 172.402 219.925V86.2381H158.08Z" fill="white"/>
</g>
<defs>
<filter id="filter0_f_91_3336" x="-1175" y="-930.424" width="2688.94" height="1445.6" filterUnits="userSpaceOnUse" color-interpolation-filters="sRGB">
<feFlood flood-opacity="0" result="BackgroundImageFix"/>
<feBlend mode="normal" in="SourceGraphic" in2="BackgroundImageFix" result="shape"/>
<feGaussianBlur stdDeviation="50.5643" result="effect1_foregroundBlur_91_3336"/>
</filter>
<radialGradient id="paint0_radial_91_3336" cx="0" cy="0" r="1" gradientUnits="userSpaceOnUse" gradientTransform="translate(169.47 -829.295) rotate(-90) scale(1243.34 1243.34)">
<stop offset="0.75" stop-color="#F9730C"/>
<stop offset="0.78" stop-color="#FFB053"/>
<stop offset="0.8" stop-color="#A5BBFC"/>
<stop offset="1" stop-color="#FAFAFA"/>
</radialGradient>
<clipPath id="clip0_91_3336">
<rect width="375" height="305" rx="25" fill="white"/>
</clipPath>
<clipPath id="clip1_91_3336">
<rect width="375" height="1229" fill="white" transform="translate(0 -822)"/>
</clipPath>
<clipPath id="clip2_91_3336">
<rect width="2688.94" height="1228.75" fill="white" transform="translate(0 -822)"/>
</clipPath>
<clipPath id="clip3_91_3336">
<rect width="2688.94" height="1445.6" fill="white" transform="translate(-1175 -930.423)"/>
</clipPath>
</defs>
</svg>
